<mxfile host="app.diagrams.net" modified="2022-01-28T18:37:42.475Z" agent="5.0 (Windows NT 10.0; Win64; x64) AppleWebKit/537.36 (KHTML, like Gecko) Chrome/97.0.4692.99 Safari/537.36" etag="fsWrYvTWvyj_6fLjjQvK" version="16.5.2" type="github">
  <diagram name="Page-1" id="74b105a0-9070-1c63-61bc-23e55f88626e">
    <mxGraphModel dx="1578" dy="818" grid="1" gridSize="10" guides="1" tooltips="1" connect="1" arrows="1" fold="1" page="1" pageScale="1.5" pageWidth="1169" pageHeight="826" background="none" math="0" shadow="0">
      <root>
        <mxCell id="0" style=";html=1;" />
        <mxCell id="1" style=";html=1;" parent="0" />
        <mxCell id="10b056a9c633e61c-30" value="Twitter system design" style="text;strokeColor=none;fillColor=none;html=1;fontSize=24;fontStyle=1;verticalAlign=middle;align=center;" parent="1" vertex="1">
          <mxGeometry x="80" y="40" width="1590" height="40" as="geometry" />
        </mxCell>
        <mxCell id="OG9d3vL8A4iprbuevYNn-3" style="edgeStyle=orthogonalEdgeStyle;rounded=0;orthogonalLoop=1;jettySize=auto;html=1;entryX=0;entryY=0.5;entryDx=0;entryDy=0;entryPerimeter=0;" edge="1" parent="1" source="OG9d3vL8A4iprbuevYNn-1" target="OG9d3vL8A4iprbuevYNn-2">
          <mxGeometry relative="1" as="geometry" />
        </mxCell>
        <mxCell id="OG9d3vL8A4iprbuevYNn-1" value="Twitter Application" style="whiteSpace=wrap;html=1;aspect=fixed;" vertex="1" parent="1">
          <mxGeometry x="20" y="470" width="50" height="50" as="geometry" />
        </mxCell>
        <mxCell id="OG9d3vL8A4iprbuevYNn-25" style="edgeStyle=orthogonalEdgeStyle;rounded=0;orthogonalLoop=1;jettySize=auto;html=1;entryX=0;entryY=0.75;entryDx=0;entryDy=0;" edge="1" parent="1" source="OG9d3vL8A4iprbuevYNn-2" target="OG9d3vL8A4iprbuevYNn-10">
          <mxGeometry relative="1" as="geometry" />
        </mxCell>
        <mxCell id="OG9d3vL8A4iprbuevYNn-26" style="edgeStyle=orthogonalEdgeStyle;rounded=0;orthogonalLoop=1;jettySize=auto;html=1;entryX=0;entryY=0.5;entryDx=0;entryDy=0;" edge="1" parent="1" source="OG9d3vL8A4iprbuevYNn-2" target="OG9d3vL8A4iprbuevYNn-11">
          <mxGeometry relative="1" as="geometry" />
        </mxCell>
        <mxCell id="OG9d3vL8A4iprbuevYNn-27" style="edgeStyle=orthogonalEdgeStyle;rounded=0;orthogonalLoop=1;jettySize=auto;html=1;entryX=0;entryY=0.25;entryDx=0;entryDy=0;" edge="1" parent="1" source="OG9d3vL8A4iprbuevYNn-2" target="OG9d3vL8A4iprbuevYNn-12">
          <mxGeometry relative="1" as="geometry" />
        </mxCell>
        <mxCell id="OG9d3vL8A4iprbuevYNn-2" value="Load balancer" style="html=1;whiteSpace=wrap;shape=isoCube2;backgroundOutline=1;isoAngle=15;" vertex="1" parent="1">
          <mxGeometry x="180" y="445" width="90" height="100" as="geometry" />
        </mxCell>
        <mxCell id="OG9d3vL8A4iprbuevYNn-30" style="edgeStyle=orthogonalEdgeStyle;rounded=0;orthogonalLoop=1;jettySize=auto;html=1;entryX=0.5;entryY=0;entryDx=0;entryDy=0;" edge="1" parent="1" source="OG9d3vL8A4iprbuevYNn-5" target="OG9d3vL8A4iprbuevYNn-14">
          <mxGeometry relative="1" as="geometry" />
        </mxCell>
        <mxCell id="OG9d3vL8A4iprbuevYNn-5" value="" style="shape=cube;whiteSpace=wrap;html=1;boundedLbl=1;backgroundOutline=1;darkOpacity=0.05;darkOpacity2=0.1;" vertex="1" parent="1">
          <mxGeometry x="810" y="462" width="120" height="80" as="geometry" />
        </mxCell>
        <mxCell id="OG9d3vL8A4iprbuevYNn-9" value="In Memory caching" style="text;html=1;align=center;verticalAlign=middle;resizable=0;points=[];autosize=1;strokeColor=none;fillColor=none;" vertex="1" parent="1">
          <mxGeometry x="817" y="500" width="120" height="20" as="geometry" />
        </mxCell>
        <mxCell id="OG9d3vL8A4iprbuevYNn-34" style="edgeStyle=orthogonalEdgeStyle;rounded=0;orthogonalLoop=1;jettySize=auto;html=1;entryX=1;entryY=0.5;entryDx=0;entryDy=0;" edge="1" parent="1" source="OG9d3vL8A4iprbuevYNn-10" target="OG9d3vL8A4iprbuevYNn-12">
          <mxGeometry relative="1" as="geometry">
            <Array as="points">
              <mxPoint x="730" y="230" />
              <mxPoint x="730" y="400" />
              <mxPoint x="550" y="400" />
              <mxPoint x="550" y="780" />
            </Array>
          </mxGeometry>
        </mxCell>
        <mxCell id="OG9d3vL8A4iprbuevYNn-10" value="Write Service" style="rounded=1;whiteSpace=wrap;html=1;" vertex="1" parent="1">
          <mxGeometry x="410" y="160" width="120" height="60" as="geometry" />
        </mxCell>
        <mxCell id="OG9d3vL8A4iprbuevYNn-35" style="edgeStyle=orthogonalEdgeStyle;rounded=0;orthogonalLoop=1;jettySize=auto;html=1;entryX=0.5;entryY=1;entryDx=0;entryDy=0;" edge="1" parent="1" source="OG9d3vL8A4iprbuevYNn-11" target="OG9d3vL8A4iprbuevYNn-10">
          <mxGeometry relative="1" as="geometry" />
        </mxCell>
        <mxCell id="OG9d3vL8A4iprbuevYNn-11" value="Timeline Service" style="rounded=1;whiteSpace=wrap;html=1;" vertex="1" parent="1">
          <mxGeometry x="410" y="465" width="120" height="60" as="geometry" />
        </mxCell>
        <mxCell id="OG9d3vL8A4iprbuevYNn-12" value="Search Service" style="rounded=1;whiteSpace=wrap;html=1;" vertex="1" parent="1">
          <mxGeometry x="410" y="750" width="120" height="60" as="geometry" />
        </mxCell>
        <mxCell id="OG9d3vL8A4iprbuevYNn-22" style="edgeStyle=orthogonalEdgeStyle;rounded=0;orthogonalLoop=1;jettySize=auto;html=1;entryX=0;entryY=0;entryDx=70;entryDy=80;entryPerimeter=0;" edge="1" parent="1" source="OG9d3vL8A4iprbuevYNn-14" target="OG9d3vL8A4iprbuevYNn-5">
          <mxGeometry relative="1" as="geometry" />
        </mxCell>
        <mxCell id="OG9d3vL8A4iprbuevYNn-14" value="Sharding Manager" style="rounded=1;whiteSpace=wrap;html=1;" vertex="1" parent="1">
          <mxGeometry x="738.5" y="600" width="273" height="50" as="geometry" />
        </mxCell>
        <mxCell id="OG9d3vL8A4iprbuevYNn-18" style="edgeStyle=orthogonalEdgeStyle;rounded=0;orthogonalLoop=1;jettySize=auto;html=1;entryX=0.5;entryY=1;entryDx=0;entryDy=0;" edge="1" parent="1" source="OG9d3vL8A4iprbuevYNn-15" target="OG9d3vL8A4iprbuevYNn-14">
          <mxGeometry relative="1" as="geometry" />
        </mxCell>
        <mxCell id="OG9d3vL8A4iprbuevYNn-15" value="shard 1" style="shape=cylinder3;whiteSpace=wrap;html=1;boundedLbl=1;backgroundOutline=1;size=15;" vertex="1" parent="1">
          <mxGeometry x="757" y="710" width="60" height="80" as="geometry" />
        </mxCell>
        <mxCell id="OG9d3vL8A4iprbuevYNn-24" style="edgeStyle=orthogonalEdgeStyle;rounded=0;orthogonalLoop=1;jettySize=auto;html=1;entryX=0.5;entryY=1;entryDx=0;entryDy=0;" edge="1" parent="1" source="OG9d3vL8A4iprbuevYNn-16" target="OG9d3vL8A4iprbuevYNn-14">
          <mxGeometry relative="1" as="geometry" />
        </mxCell>
        <mxCell id="OG9d3vL8A4iprbuevYNn-16" value="shard 2" style="shape=cylinder3;whiteSpace=wrap;html=1;boundedLbl=1;backgroundOutline=1;size=15;" vertex="1" parent="1">
          <mxGeometry x="860" y="710" width="60" height="80" as="geometry" />
        </mxCell>
        <mxCell id="OG9d3vL8A4iprbuevYNn-20" style="edgeStyle=orthogonalEdgeStyle;rounded=0;orthogonalLoop=1;jettySize=auto;html=1;entryX=0.5;entryY=1;entryDx=0;entryDy=0;" edge="1" parent="1" source="OG9d3vL8A4iprbuevYNn-17" target="OG9d3vL8A4iprbuevYNn-14">
          <mxGeometry relative="1" as="geometry" />
        </mxCell>
        <mxCell id="OG9d3vL8A4iprbuevYNn-17" value="shard n" style="shape=cylinder3;whiteSpace=wrap;html=1;boundedLbl=1;backgroundOutline=1;size=15;" vertex="1" parent="1">
          <mxGeometry x="960" y="710" width="60" height="80" as="geometry" />
        </mxCell>
        <mxCell id="OG9d3vL8A4iprbuevYNn-29" value="streaming service&lt;br&gt;- filter&lt;br&gt;- parse&lt;br&gt;- geolocation&lt;br&gt;- count location&lt;br&gt;- count hashtag&lt;br&gt;- rank calculation&lt;br&gt;" style="rounded=1;whiteSpace=wrap;html=1;" vertex="1" parent="1">
          <mxGeometry x="1160" y="190" width="190" height="130" as="geometry" />
        </mxCell>
      </root>
    </mxGraphModel>
  </diagram>
</mxfile>
